<?xml version="1.0" encoding="UTF-8" standalone="no"?>
<svg width="25px" height="25px" viewBox="0 0 25 25" version="1.1" xmlns="http://www.w3.org/2000/svg" xmlns:xlink="http://www.w3.org/1999/xlink">
    <!-- Generator: Sketch 3.7.2 (28276) - http://www.bohemiancoding.com/sketch -->
    <title>Unknown</title>
    <desc>Created with Sketch.</desc>
    <defs></defs>
    <g id="Page-1" stroke="none" stroke-width="1" fill="none" fill-rule="evenodd">
        <g id="Artboard-1" transform="translate(-530.000000, -544.000000)" fill="#666666">
            <g id="Unknown" transform="translate(530.000000, 544.000000)">
                <g id="Layer_1">
                    <path d="M12.5,24.4 C5.9,24.4 0.5,19 0.5,12.4 C0.5,5.8 5.9,0.4 12.5,0.4 C19.1,0.4 24.5,5.8 24.5,12.4 C24.5,19 19.1,24.4 12.5,24.4 L12.5,24.4 Z M12.8,10.6 C7.5,12.2 2.4,12 2.2,12 L2.2,12.3 C2.2,14.9 3.2,17.3 4.8,19.1 C7.6,14.1 13.1,12.3 13.1,12.3 C13.2,12.3 13.4,12.2 13.5,12.2 C13.3,11.7 13.1,11.2 12.8,10.6 L12.8,10.6 Z M8.1,3.1 C5.2,4.4 3.1,7.1 2.4,10.3 C2.7,10.3 6.9,10.3 11.9,9.1 C10.1,5.9 8.2,3.3 8.1,3.1 L8.1,3.1 Z M14.3,14 C14.3,14 14.2,14 14.3,14 C14.2,14 8.2,16.1 6.2,20.4 C6.1,20.3 6,20.2 6,20.2 C7.8,21.7 10,22.5 12.5,22.5 C13.9,22.5 15.3,22.2 16.5,21.7 C16.3,20.9 15.7,17.8 14.3,14 L14.3,14 Z M12.5,2.1 C11.7,2.1 10.9,2.2 10.1,2.4 C10.3,2.6 12.2,5.2 13.9,8.4 C17.8,7 19.2,4.7 19.2,4.7 C17.4,3.1 15.1,2.1 12.5,2.1 L12.5,2.1 Z M20.4,5.9 C20.4,5.9 18.7,8.3 14.7,10 C14.9,10.5 15.2,11 15.4,11.5 C15.5,11.7 15.5,11.9 15.6,12 C19.1,11.5 22.6,12.3 22.7,12.3 C22.7,9.8 21.8,7.6 20.4,5.9 L20.4,5.9 Z M16.2,13.5 C17.5,17.2 18.1,20.2 18.2,20.8 C20.5,19.3 22.1,16.8 22.6,13.9 C22.4,13.9 19.5,13 16.2,13.5 L16.2,13.5 Z" id="Shape"></path>
                </g>
            </g>
        </g>
    </g>
</svg>