<?xml version="1.0" encoding="UTF-8" standalone="no"?>
<svg width="26px" height="21px" viewBox="0 0 26 21" version="1.1" xmlns="http://www.w3.org/2000/svg" xmlns:xlink="http://www.w3.org/1999/xlink">
    <!-- Generator: Sketch 3.7.2 (28276) - http://www.bohemiancoding.com/sketch -->
    <title>Unknown</title>
    <desc>Created with Sketch.</desc>
    <defs></defs>
    <g id="Page-1" stroke="none" stroke-width="1" fill="none" fill-rule="evenodd">
        <g id="Artboard-1" transform="translate(-563.000000, -655.000000)" fill="#666666">
            <g id="Unknown" transform="translate(563.000000, 655.000000)">
                <g id="Layer_1">
                    <path d="M22.8,5.1 L22.8,5.8 C22.8,12.5 17.7,20.2 8.4,20.2 C5.5,20.2 2.9,19.4 0.6,17.9 C1,17.9 1.4,18 1.8,18 C4.2,18 6.3,17.2 8.1,15.8 C5.9,15.8 4,14.3 3.4,12.3 C3.7,12.3 4,12.4 4.4,12.4 C4.9,12.4 5.3,12.3 5.7,12.2 C3.4,11.7 1.7,9.7 1.7,7.2 C1.7,7.2 1.7,7.2 1.7,7.1 C2.4,7.5 3.2,7.7 4,7.8 C2.7,6.8 1.8,5.3 1.8,3.6 C1.8,2.6 2,1.8 2.5,1 C5,4.1 8.7,6.1 12.9,6.3 C12.8,5.9 12.8,5.5 12.8,5.1 C12.8,2.3 15,0.1 17.8,0.1 C19.3,0.1 20.6,0.7 21.5,1.7 C22.6,1.5 23.7,1.1 24.7,0.5 C24.3,1.7 23.5,2.7 22.5,3.3 C23.5,3.2 24.5,2.9 25.4,2.5 C24.7,3.5 23.8,4.3 22.8,5.1 L22.8,5.1 Z" id="Shape"></path>
                </g>
            </g>
        </g>
    </g>
</svg>